<mxfile host="65bd71144e">
    <diagram id="dHIGUwT4aTctJ3MJt3Fy" name="ページ1">
        <mxGraphModel dx="1374" dy="507" grid="1" gridSize="10" guides="1" tooltips="1" connect="1" arrows="1" fold="1" page="1" pageScale="1" pageWidth="827" pageHeight="1169" math="0" shadow="0">
            <root>
                <mxCell id="0"/>
                <mxCell id="1" parent="0"/>
                <mxCell id="181" value="" style="endArrow=none;html=1;entryX=0.5;entryY=1;entryDx=0;entryDy=0;entryPerimeter=0;exitX=0.5;exitY=0;exitDx=0;exitDy=0;" parent="1" edge="1">
                    <mxGeometry width="50" height="50" relative="1" as="geometry">
                        <mxPoint x="599.5" y="286" as="sourcePoint"/>
                        <mxPoint x="599.5" y="100" as="targetPoint"/>
                    </mxGeometry>
                </mxCell>
                <mxCell id="172" value="" style="endArrow=none;html=1;entryX=0.5;entryY=1;entryDx=0;entryDy=0;entryPerimeter=0;exitX=0.5;exitY=0;exitDx=0;exitDy=0;" parent="1" target="165" edge="1">
                    <mxGeometry width="50" height="50" relative="1" as="geometry">
                        <mxPoint x="364" y="286" as="sourcePoint"/>
                        <mxPoint x="450" y="210" as="targetPoint"/>
                    </mxGeometry>
                </mxCell>
                <mxCell id="10" value="" style="endArrow=none;html=1;exitX=0.5;exitY=0;exitDx=0;exitDy=0;exitPerimeter=0;" parent="1" source="174" edge="1">
                    <mxGeometry width="50" height="50" relative="1" as="geometry">
                        <mxPoint x="104" y="580" as="sourcePoint"/>
                        <mxPoint x="104" y="100" as="targetPoint"/>
                    </mxGeometry>
                </mxCell>
                <mxCell id="2" value="開始" style="strokeWidth=2;html=1;shape=mxgraph.flowchart.start_1;whiteSpace=wrap;" parent="1" vertex="1">
                    <mxGeometry x="54" y="40" width="100" height="60" as="geometry"/>
                </mxCell>
                <mxCell id="6" value="i : 0,1,3" style="strokeWidth=2;html=1;shape=mxgraph.flowchart.loop_limit;whiteSpace=wrap;" parent="1" vertex="1">
                    <mxGeometry x="40" y="207" width="127" height="40" as="geometry"/>
                </mxCell>
                <mxCell id="7" value="j : 1,1,13" style="strokeWidth=2;html=1;shape=mxgraph.flowchart.loop_limit;whiteSpace=wrap;" parent="1" vertex="1">
                    <mxGeometry x="40" y="280" width="127" height="41" as="geometry"/>
                </mxCell>
                <mxCell id="9" value="リストに j を入れる" style="rounded=0;whiteSpace=wrap;html=1;" parent="1" vertex="1">
                    <mxGeometry x="44" y="355" width="120" height="40" as="geometry"/>
                </mxCell>
                <mxCell id="3" value="デッキリストを宣言" style="rounded=0;whiteSpace=wrap;html=1;" parent="1" vertex="1">
                    <mxGeometry x="44" y="130" width="120" height="40" as="geometry"/>
                </mxCell>
                <mxCell id="13" value="" style="strokeWidth=2;html=1;shape=mxgraph.flowchart.loop_limit;whiteSpace=wrap;rotation=-180;" parent="1" vertex="1">
                    <mxGeometry x="40" y="430" width="127" height="41" as="geometry"/>
                </mxCell>
                <mxCell id="14" value="" style="strokeWidth=2;html=1;shape=mxgraph.flowchart.loop_limit;whiteSpace=wrap;rotation=-180;" parent="1" vertex="1">
                    <mxGeometry x="40" y="500" width="127" height="41" as="geometry"/>
                </mxCell>
                <mxCell id="16" value="リストをシャッフルする" style="rounded=0;whiteSpace=wrap;html=1;" parent="1" vertex="1">
                    <mxGeometry x="44" y="575" width="120" height="40" as="geometry"/>
                </mxCell>
                <mxCell id="164" value="デッキ" style="text;html=1;align=center;verticalAlign=middle;resizable=0;points=[];autosize=1;strokeColor=none;fillColor=none;" parent="1" vertex="1">
                    <mxGeometry x="20" y="20" width="50" height="20" as="geometry"/>
                </mxCell>
                <mxCell id="165" value="開始" style="strokeWidth=2;html=1;shape=mxgraph.flowchart.start_1;whiteSpace=wrap;" parent="1" vertex="1">
                    <mxGeometry x="314" y="40" width="100" height="60" as="geometry"/>
                </mxCell>
                <mxCell id="166" value="捨て場所" style="text;html=1;align=center;verticalAlign=middle;resizable=0;points=[];autosize=1;strokeColor=none;fillColor=none;" parent="1" vertex="1">
                    <mxGeometry x="275" y="20" width="60" height="20" as="geometry"/>
                </mxCell>
                <mxCell id="167" value="捨て場所リストを宣言" style="rounded=0;whiteSpace=wrap;html=1;" parent="1" vertex="1">
                    <mxGeometry x="296" y="130" width="136" height="40" as="geometry"/>
                </mxCell>
                <mxCell id="168" value="デッキから一番上の値を取得" style="rounded=0;whiteSpace=wrap;html=1;" parent="1" vertex="1">
                    <mxGeometry x="296" y="207" width="136" height="40" as="geometry"/>
                </mxCell>
                <mxCell id="174" value="終了" style="strokeWidth=2;html=1;shape=mxgraph.flowchart.start_1;whiteSpace=wrap;" parent="1" vertex="1">
                    <mxGeometry x="53.5" y="650" width="100" height="60" as="geometry"/>
                </mxCell>
                <mxCell id="175" value="終了" style="strokeWidth=2;html=1;shape=mxgraph.flowchart.start_1;whiteSpace=wrap;" parent="1" vertex="1">
                    <mxGeometry x="314" y="280" width="100" height="60" as="geometry"/>
                </mxCell>
                <mxCell id="176" value="開始" style="strokeWidth=2;html=1;shape=mxgraph.flowchart.start_1;whiteSpace=wrap;" parent="1" vertex="1">
                    <mxGeometry x="550" y="40" width="100" height="60" as="geometry"/>
                </mxCell>
                <mxCell id="177" value="プレイヤー" style="text;html=1;align=center;verticalAlign=middle;resizable=0;points=[];autosize=1;strokeColor=none;fillColor=none;" parent="1" vertex="1">
                    <mxGeometry x="510" y="20" width="80" height="20" as="geometry"/>
                </mxCell>
                <mxCell id="178" value="手札リストを宣言" style="rounded=0;whiteSpace=wrap;html=1;" parent="1" vertex="1">
                    <mxGeometry x="532" y="130" width="136" height="40" as="geometry"/>
                </mxCell>
                <mxCell id="179" value="デッキから5枚値を取得" style="rounded=0;whiteSpace=wrap;html=1;" parent="1" vertex="1">
                    <mxGeometry x="532" y="207" width="136" height="40" as="geometry"/>
                </mxCell>
                <mxCell id="180" value="終了" style="strokeWidth=2;html=1;shape=mxgraph.flowchart.start_1;whiteSpace=wrap;" parent="1" vertex="1">
                    <mxGeometry x="550" y="280" width="100" height="60" as="geometry"/>
                </mxCell>
            </root>
        </mxGraphModel>
    </diagram>
    <diagram id="BLYoQnJsf7oFg_bN3LxV" name="ページ2">
        <mxGraphModel dx="1374" dy="1676" grid="1" gridSize="10" guides="1" tooltips="1" connect="1" arrows="1" fold="1" page="1" pageScale="1" pageWidth="827" pageHeight="1169" math="0" shadow="0">
            <root>
                <mxCell id="vTzUctv8wY2UxoElThLa-0"/>
                <mxCell id="vTzUctv8wY2UxoElThLa-1" parent="vTzUctv8wY2UxoElThLa-0"/>
                <mxCell id="jkxBdkeHdx8S8FJW0Tqa-2" value="" style="strokeWidth=2;html=1;shape=mxgraph.flowchart.annotation_1;align=left;pointerEvents=1;rotation=-180;" parent="vTzUctv8wY2UxoElThLa-1" vertex="1">
                    <mxGeometry x="113" y="-480" width="261" height="60" as="geometry"/>
                </mxCell>
                <mxCell id="jkxBdkeHdx8S8FJW0Tqa-0" value="" style="strokeWidth=2;html=1;shape=mxgraph.flowchart.annotation_1;align=left;pointerEvents=1;rotation=-180;" parent="vTzUctv8wY2UxoElThLa-1" vertex="1">
                    <mxGeometry x="111" y="-580" width="261" height="50" as="geometry"/>
                </mxCell>
                <mxCell id="hUg3mcjaQ3DwrhkVVqC9-2" value="" style="strokeWidth=2;html=1;shape=mxgraph.flowchart.annotation_1;align=left;pointerEvents=1;rotation=-180;" parent="vTzUctv8wY2UxoElThLa-1" vertex="1">
                    <mxGeometry x="113" y="-420" width="259" height="160" as="geometry"/>
                </mxCell>
                <mxCell id="hUg3mcjaQ3DwrhkVVqC9-1" value="" style="strokeWidth=2;html=1;shape=mxgraph.flowchart.annotation_1;align=left;pointerEvents=1;rotation=-180;" parent="vTzUctv8wY2UxoElThLa-1" vertex="1">
                    <mxGeometry x="207" y="-810" width="163" height="130" as="geometry"/>
                </mxCell>
                <mxCell id="hUg3mcjaQ3DwrhkVVqC9-0" value="" style="endArrow=none;html=1;entryX=0.5;entryY=1;entryDx=0;entryDy=0;entryPerimeter=0;" parent="vTzUctv8wY2UxoElThLa-1" target="vTzUctv8wY2UxoElThLa-2" edge="1">
                    <mxGeometry width="50" height="50" relative="1" as="geometry">
                        <mxPoint x="112" y="-80" as="sourcePoint"/>
                        <mxPoint x="198" y="-920" as="targetPoint"/>
                    </mxGeometry>
                </mxCell>
                <mxCell id="vTzUctv8wY2UxoElThLa-2" value="開始" style="strokeWidth=2;html=1;shape=mxgraph.flowchart.start_1;whiteSpace=wrap;" parent="vTzUctv8wY2UxoElThLa-1" vertex="1">
                    <mxGeometry x="62" y="-1140" width="100" height="60" as="geometry"/>
                </mxCell>
                <mxCell id="aiUqwqrG7YekxvHDwZ3T-0" value="手札のカードを表示" style="rounded=0;whiteSpace=wrap;html=1;" parent="vTzUctv8wY2UxoElThLa-1" vertex="1">
                    <mxGeometry x="30" y="-1050" width="164" height="40" as="geometry"/>
                </mxCell>
                <mxCell id="aiUqwqrG7YekxvHDwZ3T-1" value="手札の数を合計する" style="rounded=0;whiteSpace=wrap;html=1;" parent="vTzUctv8wY2UxoElThLa-1" vertex="1">
                    <mxGeometry x="30" y="-980" width="164" height="40" as="geometry"/>
                </mxCell>
                <mxCell id="BeDlmQOCRrHWd3bgfEaB-0" value="合計した値を表示する" style="rounded=0;whiteSpace=wrap;html=1;" parent="vTzUctv8wY2UxoElThLa-1" vertex="1">
                    <mxGeometry x="30" y="-910" width="164" height="40" as="geometry"/>
                </mxCell>
                <mxCell id="BeDlmQOCRrHWd3bgfEaB-1" value="合計が6以上か" style="rhombus;whiteSpace=wrap;html=1;" parent="vTzUctv8wY2UxoElThLa-1" vertex="1">
                    <mxGeometry x="15" y="-840" width="194" height="60" as="geometry"/>
                </mxCell>
                <mxCell id="BeDlmQOCRrHWd3bgfEaB-3" value="「やにふ」を表示する。" style="rounded=0;whiteSpace=wrap;html=1;" parent="vTzUctv8wY2UxoElThLa-1" vertex="1">
                    <mxGeometry x="278" y="-710" width="164" height="40" as="geometry"/>
                </mxCell>
                <mxCell id="BeDlmQOCRrHWd3bgfEaB-4" value="捨て場所から一番上の値を&lt;br&gt;取得する" style="rounded=0;whiteSpace=wrap;html=1;" parent="vTzUctv8wY2UxoElThLa-1" vertex="1">
                    <mxGeometry x="30" y="-710" width="164" height="40" as="geometry"/>
                </mxCell>
                <mxCell id="BeDlmQOCRrHWd3bgfEaB-5" value="デッキからなら0を、&lt;br&gt;捨て場所からなら1を入力" style="rounded=0;whiteSpace=wrap;html=1;" parent="vTzUctv8wY2UxoElThLa-1" vertex="1">
                    <mxGeometry x="30" y="-640" width="164" height="40" as="geometry"/>
                </mxCell>
                <mxCell id="BeDlmQOCRrHWd3bgfEaB-6" value="入力が0か1" style="rhombus;whiteSpace=wrap;html=1;" parent="vTzUctv8wY2UxoElThLa-1" vertex="1">
                    <mxGeometry x="15" y="-560" width="194" height="60" as="geometry"/>
                </mxCell>
                <mxCell id="BeDlmQOCRrHWd3bgfEaB-7" value="入力が0のとき" style="rhombus;whiteSpace=wrap;html=1;" parent="vTzUctv8wY2UxoElThLa-1" vertex="1">
                    <mxGeometry x="15" y="-450" width="194" height="60" as="geometry"/>
                </mxCell>
                <mxCell id="BeDlmQOCRrHWd3bgfEaB-9" value="デッキの一番上を取得" style="rounded=0;whiteSpace=wrap;html=1;" parent="vTzUctv8wY2UxoElThLa-1" vertex="1">
                    <mxGeometry x="30" y="-340" width="164" height="40" as="geometry"/>
                </mxCell>
                <mxCell id="BeDlmQOCRrHWd3bgfEaB-10" value="手札を表示" style="rounded=0;whiteSpace=wrap;html=1;" parent="vTzUctv8wY2UxoElThLa-1" vertex="1">
                    <mxGeometry x="30" y="-220" width="164" height="40" as="geometry"/>
                </mxCell>
                <mxCell id="BeDlmQOCRrHWd3bgfEaB-11" value="捨て場所の一番上を取得" style="rounded=0;whiteSpace=wrap;html=1;" parent="vTzUctv8wY2UxoElThLa-1" vertex="1">
                    <mxGeometry x="278" y="-340" width="164" height="40" as="geometry"/>
                </mxCell>
                <mxCell id="jkxBdkeHdx8S8FJW0Tqa-1" value="入力が1のとき" style="rhombus;whiteSpace=wrap;html=1;" parent="vTzUctv8wY2UxoElThLa-1" vertex="1">
                    <mxGeometry x="280" y="-450" width="194" height="60" as="geometry"/>
                </mxCell>
            </root>
        </mxGraphModel>
    </diagram>
    <diagram id="ZZYAga77ii_fpVLc1DNO" name="ページ3">
        <mxGraphModel dx="1374" dy="507" grid="1" gridSize="10" guides="1" tooltips="1" connect="1" arrows="1" fold="1" page="1" pageScale="1" pageWidth="827" pageHeight="1169" math="0" shadow="0">
            <root>
                <mxCell id="Y2PbufcfoZN_lZIPUryY-0"/>
                <mxCell id="Y2PbufcfoZN_lZIPUryY-1" parent="Y2PbufcfoZN_lZIPUryY-0"/>
                <mxCell id="g4915_KlHkj0maj0tF_X-13" value="" style="endArrow=none;html=1;" parent="Y2PbufcfoZN_lZIPUryY-1" source="g4915_KlHkj0maj0tF_X-4" edge="1">
                    <mxGeometry width="50" height="50" relative="1" as="geometry">
                        <mxPoint x="122.5" y="120" as="sourcePoint"/>
                        <mxPoint x="172.5" y="70" as="targetPoint"/>
                    </mxGeometry>
                </mxCell>
                <mxCell id="iQbBGmOKNyKHFnMgidAT-0" value="開始" style="strokeWidth=2;html=1;shape=mxgraph.flowchart.start_2;whiteSpace=wrap;" parent="Y2PbufcfoZN_lZIPUryY-1" vertex="1">
                    <mxGeometry x="107.5" y="10" width="130" height="60" as="geometry"/>
                </mxCell>
                <mxCell id="iQbBGmOKNyKHFnMgidAT-1" value="i : 0, 1 , cpu.size(5)" style="strokeWidth=2;html=1;shape=mxgraph.flowchart.loop_limit;whiteSpace=wrap;" parent="Y2PbufcfoZN_lZIPUryY-1" vertex="1">
                    <mxGeometry x="117.5" y="297" width="100" height="60" as="geometry"/>
                </mxCell>
                <mxCell id="g4915_KlHkj0maj0tF_X-1" value="min &amp;gt; trashDeck" style="rhombus;whiteSpace=wrap;html=1;" parent="Y2PbufcfoZN_lZIPUryY-1" vertex="1">
                    <mxGeometry x="340" y="382" width="165" height="80" as="geometry"/>
                </mxCell>
                <mxCell id="g4915_KlHkj0maj0tF_X-4" value="" style="strokeWidth=2;html=1;shape=mxgraph.flowchart.loop_limit;whiteSpace=wrap;rotation=-180;" parent="Y2PbufcfoZN_lZIPUryY-1" vertex="1">
                    <mxGeometry x="117.5" y="960" width="100" height="60" as="geometry"/>
                </mxCell>
                <mxCell id="g4915_KlHkj0maj0tF_X-6" value="trashDeck.get(trashCount)&lt;br&gt;==cpu.get(i)" style="rhombus;whiteSpace=wrap;html=1;" parent="Y2PbufcfoZN_lZIPUryY-1" vertex="1">
                    <mxGeometry x="85" y="382" width="165" height="80" as="geometry"/>
                </mxCell>
                <mxCell id="g4915_KlHkj0maj0tF_X-7" value="cpu.add(trashDeck&lt;br&gt;.get(trashCount)" style="rounded=0;whiteSpace=wrap;html=1;" parent="Y2PbufcfoZN_lZIPUryY-1" vertex="1">
                    <mxGeometry x="107.5" y="500" width="120" height="60" as="geometry"/>
                </mxCell>
                <mxCell id="g4915_KlHkj0maj0tF_X-8" value="trashCount--" style="rounded=0;whiteSpace=wrap;html=1;" parent="Y2PbufcfoZN_lZIPUryY-1" vertex="1">
                    <mxGeometry x="107.5" y="710" width="120" height="60" as="geometry"/>
                </mxCell>
                <mxCell id="g4915_KlHkj0maj0tF_X-9" value="trash.remove&lt;br&gt;(trashCount)" style="rounded=0;whiteSpace=wrap;html=1;" parent="Y2PbufcfoZN_lZIPUryY-1" vertex="1">
                    <mxGeometry x="107.5" y="605" width="120" height="60" as="geometry"/>
                </mxCell>
                <mxCell id="g4915_KlHkj0maj0tF_X-11" value="break;" style="rounded=0;whiteSpace=wrap;html=1;" parent="Y2PbufcfoZN_lZIPUryY-1" vertex="1">
                    <mxGeometry x="107.5" y="820" width="120" height="60" as="geometry"/>
                </mxCell>
                <mxCell id="g4915_KlHkj0maj0tF_X-16" value="Yes&lt;span style=&quot;color: rgba(0 , 0 , 0 , 0) ; font-family: monospace ; font-size: 0px&quot;&gt;%3CmxGraphModel%3E%3Croot%3E%3CmxCell%20id%3D%220%22%2F%3E%3CmxCell%20id%3D%221%22%20parent%3D%220%22%2F%3E%3CmxCell%20id%3D%222%22%20value%3D%22max%20%3D%20cpu.get(i)%22%20style%3D%22rounded%3D0%3BwhiteSpace%3Dwrap%3Bhtml%3D1%3B%22%20vertex%3D%221%22%20parent%3D%221%22%3E%3CmxGeometry%20x%3D%22362.5%22%20y%3D%22450%22%20width%3D%22120%22%20height%3D%2260%22%20as%3D%22geometry%22%2F%3E%3C%2FmxCell%3E%3C%2Froot%3E%3C%2FmxGraphModel%3E&lt;/span&gt;" style="text;html=1;strokeColor=none;fillColor=none;align=center;verticalAlign=middle;whiteSpace=wrap;rounded=0;" parent="Y2PbufcfoZN_lZIPUryY-1" vertex="1">
                    <mxGeometry x="167.5" y="457" width="60" height="30" as="geometry"/>
                </mxCell>
                <mxCell id="g4915_KlHkj0maj0tF_X-17" value="No" style="text;html=1;strokeColor=none;fillColor=none;align=center;verticalAlign=middle;whiteSpace=wrap;rounded=0;" parent="Y2PbufcfoZN_lZIPUryY-1" vertex="1">
                    <mxGeometry x="217.5" y="340" width="60" height="30" as="geometry"/>
                </mxCell>
                <mxCell id="oZF622Hi0uHQZpHErQNl-0" value="cpu.add(deck.get&lt;br&gt;(deckCount))" style="rounded=0;whiteSpace=wrap;html=1;" parent="Y2PbufcfoZN_lZIPUryY-1" vertex="1">
                    <mxGeometry x="760" y="220" width="120" height="60" as="geometry"/>
                </mxCell>
                <mxCell id="oZF622Hi0uHQZpHErQNl-1" value="deckCount++" style="rounded=0;whiteSpace=wrap;html=1;" parent="Y2PbufcfoZN_lZIPUryY-1" vertex="1">
                    <mxGeometry x="760" y="320" width="120" height="60" as="geometry"/>
                </mxCell>
                <mxCell id="oZF622Hi0uHQZpHErQNl-2" value="trashCount = check" style="rounded=0;whiteSpace=wrap;html=1;" parent="Y2PbufcfoZN_lZIPUryY-1" vertex="1">
                    <mxGeometry x="112.5" y="120" width="120" height="60" as="geometry"/>
                </mxCell>
                <mxCell id="oZF622Hi0uHQZpHErQNl-3" value="trashCount == check" style="rhombus;whiteSpace=wrap;html=1;" parent="Y2PbufcfoZN_lZIPUryY-1" vertex="1">
                    <mxGeometry x="737.5" y="110" width="165" height="80" as="geometry"/>
                </mxCell>
                <mxCell id="oZF622Hi0uHQZpHErQNl-4" value="int min = trashDeck.&lt;br&gt;get(trashCount);" style="rounded=0;whiteSpace=wrap;html=1;" parent="Y2PbufcfoZN_lZIPUryY-1" vertex="1">
                    <mxGeometry x="112.5" y="210" width="120" height="60" as="geometry"/>
                </mxCell>
            </root>
        </mxGraphModel>
    </diagram>
</mxfile>